<svg width="43" height="43" viewBox="0 0 43 43" fill="none" xmlns="http://www.w3.org/2000/svg">
<g id="icon">
<g id="Group">
<path id="Vector" fill-rule="evenodd" clip-rule="evenodd" d="M21.5849 0.16406C30.8582 0.16406 38.3764 6.61902 38.3764 14.5816C38.3764 22.5439 30.8595 28.9985 21.587 28.9996H22.5824V37.3771C24.0973 35.2552 26.2325 33.4182 28.9191 32.0864C33.3105 29.9092 38.3264 29.503 42.8463 30.6076C41.7006 34.5214 38.7829 38.0477 34.3916 40.2249C30.3513 42.2276 25.7831 42.7318 21.5585 41.9395C17.3338 42.7318 12.7656 42.2276 8.72537 40.2249C4.334 38.0477 1.41635 34.5214 0.27063 30.6076C4.79094 29.503 9.80642 29.9092 14.1978 32.0864C16.9159 33.4337 19.0692 35.2982 20.5875 37.4512V28.9996H21.5824C12.31 28.9985 4.79346 22.5439 4.79346 14.5816C4.79346 6.61902 12.3112 0.16406 21.5849 0.16406ZM21.5849 2.85763C17.8143 2.85763 14.4006 4.16993 11.9299 6.29149C9.45867 8.41341 7.93034 11.3446 7.93034 14.5816C7.93034 17.8191 9.45867 20.7502 11.9299 22.8722C14.4006 24.9937 17.8143 26.306 21.5849 26.306C25.3551 26.306 28.7688 24.9937 31.2396 22.8722C33.7108 20.7502 35.2391 17.8194 35.2391 14.5816C35.2391 11.3442 33.7108 8.41341 31.2396 6.29149C28.7688 4.16993 25.3551 2.85763 21.5849 2.85763ZM29.8293 7.50267C27.7197 5.69095 24.8045 4.57041 21.5849 4.57041C18.3649 4.57041 15.4502 5.69095 13.3402 7.50267C11.2302 9.31439 9.92527 11.8173 9.92527 14.5816C9.92527 17.3464 11.2302 19.8492 13.3402 21.661C15.4502 23.4727 18.3649 24.5932 21.5849 24.5932C24.8045 24.5932 27.7197 23.4727 29.8293 21.661C31.9393 19.8492 33.2446 17.3464 33.2446 14.5816C33.2446 11.8173 31.9393 9.31439 29.8293 7.50267ZM18.0558 19.3487C18.5543 19.7525 19.0096 20.0768 19.5585 20.3151C19.8852 20.457 20.2288 20.5625 20.6106 20.6275L20.6316 21.3807C20.6446 21.8516 21.0998 22.2247 21.6483 22.2135C22.1968 22.2026 22.6311 21.8116 22.6185 21.3407L22.5979 20.6112C23.3846 20.4642 24.0918 20.1501 24.6529 19.7196C25.4757 19.0887 25.9847 18.2119 25.9847 17.2391C25.9847 16.2662 25.4757 15.3895 24.6529 14.7586C23.8596 14.1501 22.7739 13.7735 21.5845 13.7735C20.8945 13.7735 20.2788 13.5658 19.8407 13.23C19.4321 12.9165 19.1792 12.4886 19.1792 12.0206H19.1755C19.1755 11.5548 19.4296 11.1265 19.8407 10.8112C20.2788 10.4754 20.8945 10.2677 21.5845 10.2677V10.2645C21.9226 10.2645 22.44 10.388 22.9289 10.5834C23.3174 10.7383 23.6466 10.9192 23.7739 11.0853C24.075 11.4789 24.6907 11.5883 25.1489 11.3294C25.6071 11.0709 25.7348 10.5422 25.4333 10.1489C25.0855 9.69429 24.4501 9.30573 23.7626 9.03092C23.3774 8.87708 22.9608 8.75358 22.5627 8.67125L22.5379 7.7829C22.5249 7.312 22.0696 6.93897 21.5211 6.9498C20.9726 6.961 20.5379 7.35209 20.5509 7.82298L20.574 8.64777C19.7861 8.79475 19.078 9.10928 18.5161 9.54009C17.6959 10.1692 17.1885 11.0456 17.1885 12.0206H17.1847C17.1847 12.9935 17.6938 13.8702 18.5161 14.5011C19.3099 15.1096 20.3955 15.4859 21.5845 15.4859C22.2745 15.4859 22.8907 15.6939 23.3287 16.0294C23.7374 16.3428 23.9902 16.7707 23.9902 17.2387C23.9902 17.7067 23.7374 18.1347 23.3287 18.4481C22.8907 18.784 22.2745 18.9916 21.5845 18.9916C21.1082 18.9916 20.7563 18.9208 20.4543 18.7897C20.1196 18.6442 19.7941 18.4077 19.4195 18.1043C19.0192 17.7811 18.3897 17.7974 18.0129 18.1412C17.6366 18.485 17.656 19.0255 18.0558 19.3487Z" fill="url(#paint0_linear_105_49)"/>
</g>
</g>
<defs>
<linearGradient id="paint0_linear_105_49" x1="21.5585" y1="0.16406" x2="34.5287" y2="34.8914" gradientUnits="userSpaceOnUse">
<stop stop-color="#FDFFFE"/>
<stop offset="0.515625" stop-color="#FEFFFF" stop-opacity="0.484375"/>
<stop offset="1" stop-color="white" stop-opacity="0.81"/>
</linearGradient>
</defs>
</svg>
