<svg width="74" height="73" viewBox="0 0 74 73" fill="none" xmlns="http://www.w3.org/2000/svg">
<g id="stroke" clip-path="url(#clip0_67_10)">
<path id="Vector" d="M0.437256 23.6987C0.437256 10.6456 11.0189 0.0639954 24.0719 0.0639954H49.3949C62.4479 0.0639954 73.0295 10.6456 73.0295 23.6987V49.0216C73.0295 62.0747 62.4479 72.6563 49.3949 72.6563H24.0719C11.0189 72.6563 0.437256 62.0747 0.437256 49.0216V23.6987Z" fill="url(#paint0_linear_67_10)" fill-opacity="0.85"/>
<g id="Vector_2">
<path d="M38.862 30.5107V28.1321H36.3888V30.5107C34.6521 31.0013 33.4573 32.5015 33.4573 34.2305C33.4573 36.3875 35.3321 38.1429 37.6368 38.1429C38.5771 38.1429 39.3425 38.8495 39.3425 39.7183C39.3425 40.5983 38.5771 41.3151 37.6368 41.3151C36.6959 41.3151 35.9305 40.5988 35.9305 39.7183V39.4499H33.4573V39.7183C33.4573 41.4376 34.6521 42.9464 36.3888 43.4573V45.8172H38.862V43.4573C40.6117 42.9444 41.8157 41.4355 41.8157 39.7183C41.8157 37.5725 39.9409 35.8278 37.6368 35.8278C36.7116 35.8278 35.9305 35.0962 35.9305 34.2305C35.9305 33.3505 36.6959 32.6337 37.6368 32.6337C38.5771 32.6337 39.3425 33.3505 39.3425 34.2305V34.4989H41.8157V34.2305C41.8157 32.5041 40.6117 31.0034 38.862 30.5107Z" fill="url(#paint1_linear_67_10)"/>
<path d="M36.4926 21.6372C29.5089 22.0566 23.8993 27.3014 23.4433 33.837C23.2008 37.3127 24.4027 40.6689 26.8259 43.288C27.1623 43.652 27.845 44.6774 28.6256 47.4551C29.0246 48.8745 29.8921 50.0849 31.0417 50.9644V54.1259C31.0417 55.9118 32.287 57.4242 34.0085 57.9478C34.1497 59.1589 34.7811 60.4653 35.5415 60.4683L35.5441 60.4683H39.5311L39.5337 60.4683C40.2935 60.4653 40.9255 59.1589 41.0661 57.9478C42.7876 57.4242 44.0334 55.9118 44.0334 54.1259V50.7219C45.045 49.8551 45.8005 48.7133 46.162 47.3972C46.8915 44.7394 47.559 43.7522 47.8922 43.4004C50.161 41.0044 51.4106 37.9192 51.4106 34.7139C51.4106 27.2033 44.6351 21.1532 36.4926 21.6372ZM45.7494 41.6226C44.8406 42.5829 44.0687 44.2534 43.3893 46.7302C42.8914 48.542 41.1667 49.8073 39.1941 49.8073H35.5767C33.6166 49.8073 31.8973 48.5598 31.3945 46.7734C30.6765 44.2199 29.8905 42.5062 28.9903 41.5332C27.0629 39.4509 26.1073 36.7794 26.3002 34.0119C26.6628 28.8148 31.1233 24.6447 36.6752 24.3122C36.9225 24.2975 37.1671 24.2899 37.4106 24.2899C43.5513 24.2899 48.5471 28.9663 48.5471 34.7139C48.5471 37.2634 47.5541 39.7168 45.7494 41.6226Z" fill="url(#paint2_linear_67_10)"/>
<path d="M51.5971 16.704C51.4253 16.5851 51.2139 16.5225 50.985 16.5225C50.6306 16.5225 50.2963 16.6781 50.1137 16.9252L47.765 19.9454C47.4241 20.3897 47.5307 21.0104 48.0003 21.3271C48.1764 21.4501 48.3906 21.5152 48.6194 21.5152C48.9673 21.5152 49.2913 21.3642 49.4859 21.1116L51.8265 18.0903C51.9939 17.8773 52.0618 17.6155 52.0183 17.3532C51.9743 17.0909 51.8248 16.8606 51.5971 16.704Z" fill="url(#paint3_linear_67_10)"/>
<path d="M37.5438 18.0669C38.1276 18.0669 38.6027 17.6221 38.6027 17.0756V13.3457C38.6027 12.7962 38.1271 12.3483 37.5438 12.3483C36.9595 12.3483 36.4839 12.7957 36.4839 13.3457V17.0756C36.4839 17.6221 36.9595 18.0669 37.5438 18.0669Z" fill="url(#paint4_linear_67_10)"/>
<path d="M26.4209 21.3678C26.647 21.3678 26.8606 21.3042 27.0389 21.1832C27.2667 21.0277 27.4162 20.7974 27.4602 20.5356C27.5037 20.2722 27.4363 20.0104 27.2689 19.7984L24.9234 16.7696C24.731 16.5302 24.3934 16.3817 24.0417 16.3817C23.8134 16.3817 23.6014 16.4447 23.4503 16.5551C23.2166 16.7101 23.0611 16.9465 23.0242 17.1992C22.9753 17.4594 23.0405 17.7233 23.2085 17.9444L25.555 20.9662C25.7485 21.2178 26.0725 21.3678 26.4209 21.3678Z" fill="url(#paint5_linear_67_10)"/>
<path d="M19.8123 28.2389L15.9943 27.0747C15.4197 26.9298 14.8588 27.2109 14.6772 27.7208C14.5903 27.976 14.6142 28.25 14.7392 28.4671C14.8631 28.7086 15.0844 28.8875 15.3605 28.9704L19.1486 30.1224C19.2529 30.1544 19.3622 30.1712 19.472 30.1712C19.9297 30.1712 20.3477 29.891 20.4879 29.4899C20.5771 29.2358 20.5537 28.9643 20.4227 28.7254C20.2928 28.49 20.0759 28.3171 19.8123 28.2389Z" fill="url(#paint6_linear_67_10)"/>
<path d="M19.3981 39.1204C19.2959 39.1204 19.197 39.1342 19.0714 39.1667L15.2822 40.3182C15.0143 40.3995 14.7892 40.5795 14.6664 40.8103C14.5327 41.0497 14.5082 41.3191 14.5973 41.5672C14.7338 41.9739 15.1512 42.2576 15.6111 42.2576C15.7236 42.2576 15.8329 42.2413 15.935 42.2088L19.7264 41.0563C19.996 40.9734 20.2151 40.7981 20.3439 40.5637C20.4732 40.3268 20.4966 40.0574 20.4075 39.8062C20.2656 39.396 19.8601 39.1204 19.3981 39.1204Z" fill="url(#paint7_linear_67_10)"/>
<path d="M55.4286 30.4075C55.5401 30.4075 55.6493 30.3908 55.7526 30.3582L59.5439 29.2063C59.8136 29.1239 60.0326 28.949 60.1614 28.7137C60.2908 28.4768 60.3136 28.2063 60.2245 27.9521C60.0799 27.5444 59.6744 27.2704 59.2156 27.2704C59.1113 27.2704 59.0123 27.2841 58.8879 27.3172L55.0998 28.4737C54.8253 28.5566 54.6062 28.7299 54.4834 28.9607C54.3513 29.1966 54.3274 29.4681 54.4154 29.7248C54.5535 30.1264 54.9699 30.4075 55.4286 30.4075Z" fill="url(#paint8_linear_67_10)"/>
<path d="M59.463 40.5556L55.6526 39.397C55.5792 39.3782 55.4661 39.3563 55.3455 39.3563C54.8856 39.3563 54.4703 39.6385 54.3355 40.0411C54.1551 40.5586 54.4578 41.1199 55.0123 41.2927L58.8052 42.4447C58.9102 42.4767 59.0189 42.4929 59.1287 42.4929C59.5874 42.4929 60.0054 42.2113 60.1446 41.8092C60.2343 41.5576 60.2114 41.2881 60.081 41.0517C59.9543 40.8164 59.7293 40.6354 59.463 40.5556Z" fill="url(#paint9_linear_67_10)"/>
<path fill-rule="evenodd" clip-rule="evenodd" d="M39.5337 60.4683H35.5415C34.7811 60.4653 34.1497 59.1589 34.0085 57.9478C32.287 57.4242 31.0417 55.9118 31.0417 54.1259V50.9644C29.8921 50.0849 29.0246 48.8745 28.6256 47.4551C27.845 44.6774 27.1623 43.652 26.8259 43.288C24.4027 40.6689 23.2008 37.3127 23.4433 33.837C23.8993 27.3014 29.5089 22.0566 36.4926 21.6372C44.6351 21.1532 51.4106 27.2033 51.4106 34.7139C51.4106 37.9192 50.161 41.0044 47.8922 43.4004C47.559 43.7522 46.8915 44.7394 46.162 47.3972C45.8005 48.7133 45.045 49.8551 44.0334 50.7219V54.1259C44.0334 55.9118 42.7876 57.4242 41.0661 57.9478C40.9255 59.1589 40.2935 60.4653 39.5337 60.4683ZM43.3893 46.7302C44.0687 44.2534 44.8406 42.5829 45.7494 41.6226C47.5541 39.7168 48.5471 37.2634 48.5471 34.7139C48.5471 28.9663 43.5513 24.2899 37.4106 24.2899C37.1671 24.2899 36.9225 24.2975 36.6752 24.3122C31.1233 24.6447 26.6628 28.8148 26.3002 34.0119C26.1073 36.7794 27.0629 39.4509 28.9903 41.5332C29.8905 42.5062 30.6765 44.2199 31.3945 46.7734C31.8973 48.5598 33.6166 49.8073 35.5767 49.8073H39.1941C41.1667 49.8073 42.8914 48.542 43.3893 46.7302ZM38.862 30.5107V28.1321H36.3888V30.5107C34.6521 31.0013 33.4573 32.5015 33.4573 34.2305C33.4573 36.3875 35.3321 38.1429 37.6368 38.1429C38.5771 38.1429 39.3425 38.8495 39.3425 39.7183C39.3425 40.5983 38.5771 41.3151 37.6368 41.3151C36.6959 41.3151 35.9305 40.5988 35.9305 39.7183V39.4499H33.4573V39.7183C33.4573 41.4376 34.6521 42.9464 36.3888 43.4573V45.8172H38.862V43.4573C40.6117 42.9444 41.8157 41.4355 41.8157 39.7183C41.8157 37.5725 39.9409 35.8278 37.6368 35.8278C36.7116 35.8278 35.9305 35.0962 35.9305 34.2305C35.9305 33.3505 36.6959 32.6337 37.6368 32.6337C38.5771 32.6337 39.3425 33.3505 39.3425 34.2305V34.4989H41.8157V34.2305C41.8157 32.5041 40.6117 31.0034 38.862 30.5107Z" fill="url(#paint10_linear_67_10)"/>
<path fill-rule="evenodd" clip-rule="evenodd" d="M19.3981 39.1204C19.2959 39.1204 19.197 39.1342 19.0714 39.1667L15.2822 40.3182C15.0143 40.3995 14.7892 40.5795 14.6664 40.8103C14.5327 41.0497 14.5082 41.3191 14.5973 41.5672C14.7338 41.9739 15.1512 42.2576 15.6111 42.2576C15.7236 42.2576 15.8329 42.2413 15.935 42.2088L19.7264 41.0563C19.996 40.9734 20.2151 40.7981 20.3439 40.5637C20.4732 40.3268 20.4966 40.0574 20.4075 39.8062C20.2656 39.396 19.8601 39.1204 19.3981 39.1204Z" fill="url(#paint11_linear_67_10)"/>
<path fill-rule="evenodd" clip-rule="evenodd" d="M55.4286 30.4075C55.5401 30.4075 55.6493 30.3908 55.7526 30.3582L59.5439 29.2063C59.8136 29.1239 60.0326 28.949 60.1614 28.7137C60.2908 28.4768 60.3136 28.2063 60.2245 27.9521C60.0799 27.5444 59.6744 27.2704 59.2156 27.2704C59.1113 27.2704 59.0123 27.2841 58.8879 27.3172L55.0998 28.4737C54.8253 28.5566 54.6062 28.7299 54.4834 28.9607C54.3513 29.1966 54.3274 29.4681 54.4154 29.7248C54.5535 30.1264 54.9699 30.4075 55.4286 30.4075Z" fill="url(#paint12_linear_67_10)"/>
<path fill-rule="evenodd" clip-rule="evenodd" d="M37.5438 18.0669C38.1276 18.0669 38.6027 17.6221 38.6027 17.0756V13.3457C38.6027 12.7962 38.1271 12.3483 37.5438 12.3483C36.9595 12.3483 36.4839 12.7957 36.4839 13.3457V17.0756C36.4839 17.6221 36.9595 18.0669 37.5438 18.0669Z" fill="url(#paint13_linear_67_10)"/>
</g>
</g>
<defs>
<linearGradient id="paint0_linear_67_10" x1="73.0295" y1="0.0639932" x2="0.437258" y2="72.6563" gradientUnits="userSpaceOnUse">
<stop stop-color="#4FD894"/>
<stop offset="0.514206" stop-color="#4FD894"/>
</linearGradient>
<linearGradient id="paint1_linear_67_10" x1="22.9516" y1="18.9184" x2="52.0475" y2="56.9308" gradientUnits="userSpaceOnUse">
<stop stop-color="#FEFFFE"/>
<stop offset="0.527299" stop-color="white" stop-opacity="0.26"/>
<stop offset="1" stop-color="#FBFEFD"/>
</linearGradient>
<linearGradient id="paint2_linear_67_10" x1="22.9516" y1="18.9184" x2="52.0475" y2="56.9308" gradientUnits="userSpaceOnUse">
<stop stop-color="#FEFFFE"/>
<stop offset="0.527299" stop-color="white" stop-opacity="0.26"/>
<stop offset="1" stop-color="#FBFEFD"/>
</linearGradient>
<linearGradient id="paint3_linear_67_10" x1="22.9516" y1="18.9184" x2="52.0475" y2="56.9308" gradientUnits="userSpaceOnUse">
<stop stop-color="#FEFFFE"/>
<stop offset="0.527299" stop-color="white" stop-opacity="0.26"/>
<stop offset="1" stop-color="#FBFEFD"/>
</linearGradient>
<linearGradient id="paint4_linear_67_10" x1="22.9516" y1="18.9184" x2="52.0475" y2="56.9308" gradientUnits="userSpaceOnUse">
<stop stop-color="#FEFFFE"/>
<stop offset="0.527299" stop-color="white" stop-opacity="0.26"/>
<stop offset="1" stop-color="#FBFEFD"/>
</linearGradient>
<linearGradient id="paint5_linear_67_10" x1="22.9516" y1="18.9184" x2="52.0475" y2="56.9308" gradientUnits="userSpaceOnUse">
<stop stop-color="#FEFFFE"/>
<stop offset="0.527299" stop-color="white" stop-opacity="0.26"/>
<stop offset="1" stop-color="#FBFEFD"/>
</linearGradient>
<linearGradient id="paint6_linear_67_10" x1="22.9516" y1="18.9184" x2="52.0475" y2="56.9308" gradientUnits="userSpaceOnUse">
<stop stop-color="#FEFFFE"/>
<stop offset="0.527299" stop-color="white" stop-opacity="0.26"/>
<stop offset="1" stop-color="#FBFEFD"/>
</linearGradient>
<linearGradient id="paint7_linear_67_10" x1="22.9516" y1="18.9184" x2="52.0475" y2="56.9308" gradientUnits="userSpaceOnUse">
<stop stop-color="#FEFFFE"/>
<stop offset="0.527299" stop-color="white" stop-opacity="0.26"/>
<stop offset="1" stop-color="#FBFEFD"/>
</linearGradient>
<linearGradient id="paint8_linear_67_10" x1="22.9516" y1="18.9184" x2="52.0475" y2="56.9308" gradientUnits="userSpaceOnUse">
<stop stop-color="#FEFFFE"/>
<stop offset="0.527299" stop-color="white" stop-opacity="0.26"/>
<stop offset="1" stop-color="#FBFEFD"/>
</linearGradient>
<linearGradient id="paint9_linear_67_10" x1="22.9516" y1="18.9184" x2="52.0475" y2="56.9308" gradientUnits="userSpaceOnUse">
<stop stop-color="#FEFFFE"/>
<stop offset="0.527299" stop-color="white" stop-opacity="0.26"/>
<stop offset="1" stop-color="#FBFEFD"/>
</linearGradient>
<linearGradient id="paint10_linear_67_10" x1="22.9516" y1="18.9184" x2="52.0475" y2="56.9308" gradientUnits="userSpaceOnUse">
<stop stop-color="#FEFFFE"/>
<stop offset="0.527299" stop-color="white" stop-opacity="0.26"/>
<stop offset="1" stop-color="#FBFEFD"/>
</linearGradient>
<linearGradient id="paint11_linear_67_10" x1="22.9516" y1="18.9184" x2="52.0475" y2="56.9308" gradientUnits="userSpaceOnUse">
<stop stop-color="#FEFFFE"/>
<stop offset="0.527299" stop-color="white" stop-opacity="0.26"/>
<stop offset="1" stop-color="#FBFEFD"/>
</linearGradient>
<linearGradient id="paint12_linear_67_10" x1="22.9516" y1="18.9184" x2="52.0475" y2="56.9308" gradientUnits="userSpaceOnUse">
<stop stop-color="#FEFFFE"/>
<stop offset="0.527299" stop-color="white" stop-opacity="0.26"/>
<stop offset="1" stop-color="#FBFEFD"/>
</linearGradient>
<linearGradient id="paint13_linear_67_10" x1="22.9516" y1="18.9184" x2="52.0475" y2="56.9308" gradientUnits="userSpaceOnUse">
<stop stop-color="#FEFFFE"/>
<stop offset="0.527299" stop-color="white" stop-opacity="0.26"/>
<stop offset="1" stop-color="#FBFEFD"/>
</linearGradient>
<clipPath id="clip0_67_10">
<rect width="72.5923" height="72.5923" fill="white" transform="translate(0.437256 0.0639954)"/>
</clipPath>
</defs>
</svg>
