<svg width="47" height="43" viewBox="0 0 47 43" fill="none" xmlns="http://www.w3.org/2000/svg">
<g id="Vector">
<path d="M29.401 5.34027V3.64824C29.401 3.4991 29.5218 3.37863 29.671 3.37863H31.2866C31.4357 3.37863 31.5566 3.4991 31.5566 3.64824V5.34443C33.2607 5.61404 34.546 6.5367 35.0699 7.89806C35.1222 8.03515 35.0416 8.18802 34.9008 8.23247L32.8378 8.85271C32.6969 8.893 32.5478 8.81241 32.4672 8.68778C32.1689 8.22043 31.4519 7.9504 30.4806 7.9504C29.973 7.9504 28.3292 8.04719 28.3292 9.29597C28.3292 10.5406 29.973 10.6374 30.4806 10.6374C33.3778 10.6374 35.32 12.2609 35.32 14.6737C35.32 16.7724 33.8452 18.2708 31.5566 18.6252V20.3214C31.5566 20.4701 31.4357 20.591 31.2866 20.591H29.6747C29.5218 20.591 29.4051 20.4701 29.4051 20.3214V18.6215C27.7006 18.3514 26.4111 17.4292 25.8914 16.0674C25.8349 15.9303 25.9197 15.7816 26.0609 15.7372L28.1198 15.1169C28.2648 15.0725 28.4097 15.1572 28.4903 15.2818C28.7924 15.745 29.5098 16.0192 30.4806 16.0151C30.9846 16.0151 32.6321 15.9183 32.6321 14.6737C32.6321 13.4249 30.9846 13.3281 30.4806 13.3281C27.5839 13.3281 25.6376 11.7088 25.6376 9.29597C25.6376 7.19308 27.1124 5.69463 29.401 5.34027ZM30.4806 23.7615C36.9837 23.7615 42.258 18.4885 42.258 11.9867C42.258 5.4811 36.9837 0.208095 30.4806 0.208095C23.9738 0.208095 18.6996 5.4811 18.6996 11.9867C18.6996 18.4885 23.9738 23.7615 30.4806 23.7615Z" fill="url(#paint0_linear_105_31)"/>
<path d="M45.7309 25.9126C44.8124 24.7403 43.1162 24.5346 41.9435 25.4531L33.5872 31.9708C33.551 31.999 33.5348 32.0514 33.5469 32.0958C33.5469 32.1037 33.551 32.1199 33.551 32.1199C33.9577 33.6429 33.4542 35.3266 32.1448 36.3535C30.9521 37.2882 29.3565 37.4777 27.9748 36.8491L18.4416 32.7281C18.0992 32.5794 17.9418 32.1843 18.0909 31.842C18.2359 31.4997 18.6351 31.3426 18.9775 31.4918L28.5227 35.6166C29.4088 36.0274 30.4889 35.9389 31.3106 35.2942C32.4834 34.3757 32.6886 32.6799 31.7701 31.5076C31.4718 31.1291 31.093 30.8512 30.6779 30.678L17.2692 24.8774C14.8635 23.8741 11.995 24.1641 9.79487 25.8844L1.07174 32.7161C0.977641 32.7905 0.925217 32.8994 0.918868 33.0105C0.917996 33.0257 0.917993 33.041 0.918868 33.0563C0.923355 33.1344 0.950955 33.2114 1.0032 33.276L6.35805 40.1119C6.49514 40.2851 6.74481 40.3175 6.9222 40.1804L9.07369 38.4926C9.93985 37.8158 11.4952 37.5259 12.5429 37.8441L27.1726 42.2792C28.047 42.5371 29.0341 42.3839 29.8118 41.7757L45.2677 29.6951C45.9347 29.1748 46.2902 28.4015 46.3034 27.6156C46.3039 27.5853 46.3039 27.555 46.3034 27.5246C46.2939 26.9592 46.1068 26.392 45.7309 25.9126Z" fill="url(#paint1_linear_105_31)"/>
<path fill-rule="evenodd" clip-rule="evenodd" d="M42.258 11.9867C42.258 18.4885 36.9837 23.7615 30.4806 23.7615C23.9738 23.7615 18.6996 18.4885 18.6996 11.9867C18.6996 5.4811 23.9738 0.208095 30.4806 0.208095C36.9837 0.208095 42.258 5.4811 42.258 11.9867ZM29.401 3.64824V5.34027C27.1124 5.69463 25.6376 7.19308 25.6376 9.29597C25.6376 11.7088 27.5839 13.3281 30.4806 13.3281C30.9846 13.3281 32.6321 13.4249 32.6321 14.6737C32.6321 15.9183 30.9846 16.0151 30.4806 16.0151C29.5098 16.0192 28.7924 15.745 28.4903 15.2818C28.4097 15.1572 28.2648 15.0725 28.1198 15.1169L26.0609 15.7372C25.9197 15.7816 25.8349 15.9303 25.8914 16.0674C26.4111 17.4292 27.7006 18.3514 29.4051 18.6215V20.3214C29.4051 20.4701 29.5218 20.591 29.6747 20.591H31.2866C31.4357 20.591 31.5566 20.4701 31.5566 20.3214V18.6252C33.8452 18.2708 35.32 16.7724 35.32 14.6737C35.32 12.2609 33.3778 10.6374 30.4806 10.6374C29.973 10.6374 28.3292 10.5406 28.3292 9.29597C28.3292 8.04719 29.973 7.9504 30.4806 7.9504C31.4519 7.9504 32.1689 8.22043 32.4672 8.68778C32.5478 8.81241 32.6969 8.893 32.8378 8.85271L34.9008 8.23247C35.0416 8.18802 35.1222 8.03515 35.0699 7.89806C34.546 6.5367 33.2607 5.61404 31.5566 5.34443V3.64824C31.5566 3.4991 31.4357 3.37863 31.2866 3.37863H29.671C29.5218 3.37863 29.401 3.4991 29.401 3.64824Z" fill="url(#paint2_linear_105_31)"/>
<path fill-rule="evenodd" clip-rule="evenodd" d="M0.918868 33.0563V33.0105C0.925217 32.8994 0.977641 32.7905 1.07174 32.7161L9.79487 25.8844C11.995 24.1641 14.8635 23.8741 17.2692 24.8774L30.6779 30.678C31.093 30.8512 31.4718 31.1291 31.7701 31.5076C32.6886 32.6799 32.4834 34.3757 31.3106 35.2942C30.4889 35.9389 29.4088 36.0274 28.5227 35.6166L18.9775 31.4918C18.6351 31.3426 18.2359 31.4997 18.0909 31.842C17.9418 32.1843 18.0992 32.5794 18.4416 32.7281L27.9748 36.8491C29.3565 37.4777 30.9521 37.2882 32.1448 36.3535C33.4542 35.3266 33.9577 33.6429 33.551 32.1199C33.551 32.1199 33.5469 32.1037 33.5469 32.0958C33.5348 32.0514 33.551 31.999 33.5872 31.9708L41.9435 25.4531C43.1162 24.5346 44.8124 24.7403 45.7309 25.9126C46.1068 26.392 46.2939 26.9592 46.3034 27.5246V27.6156C46.2902 28.4015 45.9347 29.1748 45.2677 29.6951L29.8118 41.7757C29.0341 42.3839 28.047 42.5371 27.1726 42.2792L12.5429 37.8441C11.4952 37.5259 9.93985 37.8158 9.07369 38.4926L6.9222 40.1804C6.74481 40.3175 6.49514 40.2851 6.35805 40.1119L1.0032 33.276C0.950955 33.2114 0.923355 33.1344 0.918868 33.0563Z" fill="url(#paint3_linear_105_31)"/>
</g>
<defs>
<linearGradient id="paint0_linear_105_31" x1="39.361" y1="0.164062" x2="0.918212" y2="42.3271" gradientUnits="userSpaceOnUse">
<stop stop-color="white" stop-opacity="0.81"/>
<stop offset="0.505208" stop-color="white" stop-opacity="0.494792"/>
<stop offset="1" stop-color="white" stop-opacity="0.83"/>
</linearGradient>
<linearGradient id="paint1_linear_105_31" x1="39.361" y1="0.164062" x2="0.918212" y2="42.3271" gradientUnits="userSpaceOnUse">
<stop stop-color="white" stop-opacity="0.81"/>
<stop offset="0.505208" stop-color="white" stop-opacity="0.494792"/>
<stop offset="1" stop-color="white" stop-opacity="0.83"/>
</linearGradient>
<linearGradient id="paint2_linear_105_31" x1="39.361" y1="0.164062" x2="0.918212" y2="42.3271" gradientUnits="userSpaceOnUse">
<stop stop-color="white" stop-opacity="0.81"/>
<stop offset="0.505208" stop-color="white" stop-opacity="0.494792"/>
<stop offset="1" stop-color="white" stop-opacity="0.83"/>
</linearGradient>
<linearGradient id="paint3_linear_105_31" x1="39.361" y1="0.164062" x2="0.918212" y2="42.3271" gradientUnits="userSpaceOnUse">
<stop stop-color="white" stop-opacity="0.81"/>
<stop offset="0.505208" stop-color="white" stop-opacity="0.494792"/>
<stop offset="1" stop-color="white" stop-opacity="0.83"/>
</linearGradient>
</defs>
</svg>
